<mxfile host="65bd71144e">
    <diagram id="EAuhySiRd8msS2dnhB_M" name="Page-1">
        <mxGraphModel dx="773" dy="361" grid="0" gridSize="10" guides="1" tooltips="1" connect="1" arrows="1" fold="1" page="1" pageScale="1" pageWidth="1100" pageHeight="850" background="#333333" math="0" shadow="0" adaptiveColors="auto">
            <root>
                <mxCell id="0"/>
                <mxCell id="1" parent="0"/>
                <mxCell id="108" value="Shared" style="rounded=0;whiteSpace=wrap;fillColor=none;strokeColor=#FFFFFF;fontColor=#FFFFFF;align=left;verticalAlign=top;fontSize=18;movable=1;resizable=1;rotatable=1;deletable=1;editable=1;locked=0;connectable=1;" parent="1" vertex="1">
                    <mxGeometry x="14" y="336" width="608" height="502" as="geometry"/>
                </mxCell>
                <mxCell id="110" value="Core" style="rounded=0;whiteSpace=wrap;fillColor=none;strokeColor=#FFFFFF;fontColor=#FFFFFF;align=left;verticalAlign=top;fontSize=18;movable=1;resizable=1;rotatable=1;deletable=1;editable=1;locked=0;connectable=1;" parent="1" vertex="1">
                    <mxGeometry x="639" y="51" width="441" height="761" as="geometry"/>
                </mxCell>
                <mxCell id="111" value="Resume" style="rounded=0;whiteSpace=wrap;fillColor=none;strokeColor=#99CCFF;fontColor=#99CCFF;align=left;verticalAlign=top;fontSize=18;movable=1;resizable=1;rotatable=1;deletable=1;editable=1;locked=0;connectable=1;" parent="1" vertex="1">
                    <mxGeometry x="18" y="12.5" width="578" height="307.5" as="geometry"/>
                </mxCell>
                <mxCell id="83" value="Core" style="rounded=0;whiteSpace=wrap;fillColor=none;strokeColor=#99CCFF;fontColor=#99CCFF;align=left;verticalAlign=top;fontSize=18;movable=1;resizable=1;rotatable=1;deletable=1;editable=1;locked=0;connectable=1;" parent="1" vertex="1">
                    <mxGeometry x="51" y="203" width="516" height="104" as="geometry"/>
                </mxCell>
                <mxCell id="3" value="Logic" style="rounded=0;whiteSpace=wrap;html=1;fillColor=none;strokeColor=#99CCFF;fontColor=#99CCFF;align=left;verticalAlign=top;movable=1;resizable=1;rotatable=1;deletable=1;editable=1;locked=0;connectable=1;" parent="1" vertex="1">
                    <mxGeometry x="263" y="238" width="120" height="52" as="geometry"/>
                </mxCell>
                <mxCell id="7" style="edgeStyle=none;html=1;entryX=0;entryY=0.5;entryDx=0;entryDy=0;strokeColor=#99CCFF;fontColor=#99CCFF;align=left;verticalAlign=top;movable=1;resizable=1;rotatable=1;deletable=1;editable=1;locked=0;connectable=1;" parent="1" source="5" target="3" edge="1">
                    <mxGeometry relative="1" as="geometry"/>
                </mxCell>
                <mxCell id="5" value="InputDriver" style="rounded=0;whiteSpace=wrap;html=1;fillColor=none;strokeColor=#99CCFF;fontColor=#99CCFF;align=left;verticalAlign=top;movable=1;resizable=1;rotatable=1;deletable=1;editable=1;locked=0;connectable=1;" parent="1" vertex="1">
                    <mxGeometry x="97" y="238" width="120" height="51" as="geometry"/>
                </mxCell>
                <mxCell id="8" style="edgeStyle=none;html=1;strokeColor=#99CCFF;fontColor=#99CCFF;align=left;verticalAlign=top;movable=1;resizable=1;rotatable=1;deletable=1;editable=1;locked=0;connectable=1;" parent="1" source="6" target="3" edge="1">
                    <mxGeometry relative="1" as="geometry"/>
                </mxCell>
                <mxCell id="6" value="OutputDriver" style="rounded=0;whiteSpace=wrap;fillColor=none;strokeColor=#99CCFF;fontColor=#99CCFF;align=left;verticalAlign=top;movable=1;resizable=1;rotatable=1;deletable=1;editable=1;locked=0;connectable=1;" parent="1" vertex="1">
                    <mxGeometry x="433" y="238" width="115" height="54" as="geometry"/>
                </mxCell>
                <mxCell id="59" style="edgeStyle=none;html=1;entryX=0.998;entryY=0.1;entryDx=0;entryDy=0;strokeColor=#FFFFFF;exitX=0;exitY=0.5;exitDx=0;exitDy=0;entryPerimeter=0;movable=1;resizable=1;rotatable=1;deletable=1;editable=1;locked=0;connectable=1;" parent="1" source="24" target="37" edge="1">
                    <mxGeometry relative="1" as="geometry"/>
                </mxCell>
                <mxCell id="21" value="SamplesDto" style="swimlane;fontStyle=0;align=center;verticalAlign=top;childLayout=stackLayout;horizontal=1;startSize=26;horizontalStack=0;resizeParent=1;resizeParentMax=0;resizeLast=0;collapsible=0;marginBottom=0;whiteSpace=wrap;fontColor=#FFFFFF;fillColor=none;strokeColor=#FFFFFF;movable=1;resizable=1;rotatable=1;deletable=1;editable=1;locked=0;connectable=1;" parent="1" vertex="1">
                    <mxGeometry x="302" y="415" width="195" height="154" as="geometry"/>
                </mxCell>
                <mxCell id="22" value="attributes" style="text;html=1;strokeColor=none;fillColor=none;align=center;verticalAlign=middle;spacingLeft=4;spacingRight=4;overflow=hidden;rotatable=1;points=[[0,0.5],[1,0.5]];portConstraint=eastwest;whiteSpace=wrap;fontColor=#FFFFFF;movable=1;resizable=1;deletable=1;editable=1;locked=0;connectable=1;" parent="21" vertex="1">
                    <mxGeometry y="26" width="195" height="20" as="geometry"/>
                </mxCell>
                <mxCell id="23" value="tamizes: List&amp;lt;&lt;span style=&quot;color: rgb(255, 255, 255);&quot;&gt;Tamize&lt;span style=&quot;color: rgb(255, 255, 255); text-align: center;&quot;&gt;Dto&lt;/span&gt;&amp;gt;&lt;/span&gt;" style="text;html=1;strokeColor=none;fillColor=none;align=left;verticalAlign=middle;spacingLeft=4;spacingRight=4;overflow=hidden;rotatable=1;points=[[0,0.5],[1,0.5]];portConstraint=eastwest;whiteSpace=wrap;fontColor=#FFFFFF;movable=1;resizable=1;deletable=1;editable=1;locked=0;connectable=1;" parent="21" vertex="1">
                    <mxGeometry y="46" width="195" height="20" as="geometry"/>
                </mxCell>
                <mxCell id="24" value="soils: List&amp;lt;&lt;span style=&quot;color: rgb(255, 255, 255);&quot;&gt;Soil&lt;span style=&quot;color: rgb(255, 255, 255); text-align: center;&quot;&gt;Dto&lt;/span&gt;&amp;gt;&lt;/span&gt;" style="text;html=1;strokeColor=none;fillColor=none;align=left;verticalAlign=middle;spacingLeft=4;spacingRight=4;overflow=hidden;rotatable=1;points=[[0,0.5],[1,0.5]];portConstraint=eastwest;fontColor=#FFFFFF;whiteSpace=wrap;movable=1;resizable=1;deletable=1;editable=1;locked=0;connectable=1;" parent="21" vertex="1">
                    <mxGeometry y="66" width="195" height="20" as="geometry"/>
                </mxCell>
                <mxCell id="25" value="..." style="text;html=1;strokeColor=none;fillColor=none;align=left;verticalAlign=middle;spacingLeft=4;spacingRight=4;overflow=hidden;rotatable=1;points=[[0,0.5],[1,0.5]];portConstraint=eastwest;whiteSpace=wrap;fontColor=#FFFFFF;movable=1;resizable=1;deletable=1;editable=1;locked=0;connectable=1;" parent="21" vertex="1">
                    <mxGeometry y="86" width="195" height="20" as="geometry"/>
                </mxCell>
                <mxCell id="26" value="" style="line;strokeWidth=1;fillColor=none;align=left;verticalAlign=middle;spacingTop=-1;spacingLeft=3;spacingRight=3;rotatable=1;labelPosition=right;points=[];portConstraint=eastwest;fontColor=#FFFFFF;strokeColor=#FFFFFF;movable=1;resizable=1;deletable=1;editable=1;locked=0;connectable=1;" parent="21" vertex="1">
                    <mxGeometry y="106" width="195" height="8" as="geometry"/>
                </mxCell>
                <mxCell id="27" value="operations" style="text;html=1;strokeColor=none;fillColor=none;align=center;verticalAlign=middle;spacingLeft=4;spacingRight=4;overflow=hidden;rotatable=1;points=[[0,0.5],[1,0.5]];portConstraint=eastwest;whiteSpace=wrap;fontColor=#FFFFFF;movable=1;resizable=1;deletable=1;editable=1;locked=0;connectable=1;" parent="21" vertex="1">
                    <mxGeometry y="114" width="195" height="20" as="geometry"/>
                </mxCell>
                <mxCell id="28" value="validate()" style="text;html=1;strokeColor=none;fillColor=none;align=left;verticalAlign=middle;spacingLeft=4;spacingRight=4;overflow=hidden;rotatable=1;points=[[0,0.5],[1,0.5]];portConstraint=eastwest;whiteSpace=wrap;fontColor=#FFFFFF;movable=1;resizable=1;deletable=1;editable=1;locked=0;connectable=1;" parent="21" vertex="1">
                    <mxGeometry y="134" width="195" height="20" as="geometry"/>
                </mxCell>
                <mxCell id="29" value="TamizDto" style="swimlane;fontStyle=0;align=center;verticalAlign=top;childLayout=stackLayout;horizontal=1;startSize=26;horizontalStack=0;resizeParent=1;resizeParentMax=0;resizeLast=0;collapsible=0;marginBottom=0;whiteSpace=wrap;fontColor=#FFFFFF;fillColor=none;strokeColor=#FFFFFF;movable=1;resizable=1;rotatable=1;deletable=1;editable=1;locked=0;connectable=1;" parent="1" vertex="1">
                    <mxGeometry x="26" y="465" width="195" height="134" as="geometry"/>
                </mxCell>
                <mxCell id="30" value="attributes" style="text;html=1;strokeColor=none;fillColor=none;align=center;verticalAlign=middle;spacingLeft=4;spacingRight=4;overflow=hidden;rotatable=1;points=[[0,0.5],[1,0.5]];portConstraint=eastwest;whiteSpace=wrap;fontColor=#FFFFFF;movable=1;resizable=1;deletable=1;editable=1;locked=0;connectable=1;" parent="29" vertex="1">
                    <mxGeometry y="26" width="195" height="20" as="geometry"/>
                </mxCell>
                <mxCell id="31" value="diameter:&amp;nbsp;&lt;span style=&quot;color: rgb(255, 255, 255);&quot;&gt;number&lt;/span&gt;" style="text;html=1;strokeColor=none;fillColor=none;align=left;verticalAlign=middle;spacingLeft=4;spacingRight=4;overflow=hidden;rotatable=1;points=[[0,0.5],[1,0.5]];portConstraint=eastwest;whiteSpace=wrap;fontColor=#FFFFFF;movable=1;resizable=1;deletable=1;editable=1;locked=0;connectable=1;" parent="29" vertex="1">
                    <mxGeometry y="46" width="195" height="20" as="geometry"/>
                </mxCell>
                <mxCell id="33" value="..." style="text;html=1;strokeColor=none;fillColor=none;align=left;verticalAlign=middle;spacingLeft=4;spacingRight=4;overflow=hidden;rotatable=1;points=[[0,0.5],[1,0.5]];portConstraint=eastwest;whiteSpace=wrap;fontColor=#FFFFFF;movable=1;resizable=1;deletable=1;editable=1;locked=0;connectable=1;" parent="29" vertex="1">
                    <mxGeometry y="66" width="195" height="20" as="geometry"/>
                </mxCell>
                <mxCell id="34" value="" style="line;strokeWidth=1;fillColor=none;align=left;verticalAlign=middle;spacingTop=-1;spacingLeft=3;spacingRight=3;rotatable=1;labelPosition=right;points=[];portConstraint=eastwest;fontColor=#FFFFFF;strokeColor=#FFFFFF;movable=1;resizable=1;deletable=1;editable=1;locked=0;connectable=1;" parent="29" vertex="1">
                    <mxGeometry y="86" width="195" height="8" as="geometry"/>
                </mxCell>
                <mxCell id="35" value="operations" style="text;html=1;strokeColor=none;fillColor=none;align=center;verticalAlign=middle;spacingLeft=4;spacingRight=4;overflow=hidden;rotatable=1;points=[[0,0.5],[1,0.5]];portConstraint=eastwest;whiteSpace=wrap;fontColor=#FFFFFF;movable=1;resizable=1;deletable=1;editable=1;locked=0;connectable=1;" parent="29" vertex="1">
                    <mxGeometry y="94" width="195" height="20" as="geometry"/>
                </mxCell>
                <mxCell id="36" value="validate()" style="text;html=1;strokeColor=none;fillColor=none;align=left;verticalAlign=middle;spacingLeft=4;spacingRight=4;overflow=hidden;rotatable=1;points=[[0,0.5],[1,0.5]];portConstraint=eastwest;whiteSpace=wrap;fontColor=#FFFFFF;movable=1;resizable=1;deletable=1;editable=1;locked=0;connectable=1;" parent="29" vertex="1">
                    <mxGeometry y="114" width="195" height="20" as="geometry"/>
                </mxCell>
                <mxCell id="37" value="SoilDto" style="swimlane;fontStyle=0;align=center;verticalAlign=top;childLayout=stackLayout;horizontal=1;startSize=26;horizontalStack=0;resizeParent=1;resizeParentMax=0;resizeLast=0;collapsible=0;marginBottom=0;whiteSpace=wrap;fontColor=#FFFFFF;fillColor=none;strokeColor=#FFFFFF;movable=1;resizable=1;rotatable=1;deletable=1;editable=1;locked=0;connectable=1;" parent="1" vertex="1">
                    <mxGeometry x="28" y="630" width="195" height="134" as="geometry"/>
                </mxCell>
                <mxCell id="38" value="attributes" style="text;html=1;strokeColor=none;fillColor=none;align=center;verticalAlign=middle;spacingLeft=4;spacingRight=4;overflow=hidden;rotatable=1;points=[[0,0.5],[1,0.5]];portConstraint=eastwest;whiteSpace=wrap;fontColor=#FFFFFF;movable=1;resizable=1;deletable=1;editable=1;locked=0;connectable=1;" parent="37" vertex="1">
                    <mxGeometry y="26" width="195" height="20" as="geometry"/>
                </mxCell>
                <mxCell id="39" value="width:&amp;nbsp;&lt;span style=&quot;color: rgb(255, 255, 255);&quot;&gt;number&lt;/span&gt;" style="text;html=1;strokeColor=none;fillColor=none;align=left;verticalAlign=middle;spacingLeft=4;spacingRight=4;overflow=hidden;rotatable=1;points=[[0,0.5],[1,0.5]];portConstraint=eastwest;whiteSpace=wrap;fontColor=#FFFFFF;movable=1;resizable=1;deletable=1;editable=1;locked=0;connectable=1;" parent="37" vertex="1">
                    <mxGeometry y="46" width="195" height="20" as="geometry"/>
                </mxCell>
                <mxCell id="40" value="..." style="text;html=1;strokeColor=none;fillColor=none;align=left;verticalAlign=middle;spacingLeft=4;spacingRight=4;overflow=hidden;rotatable=1;points=[[0,0.5],[1,0.5]];portConstraint=eastwest;whiteSpace=wrap;fontColor=#FFFFFF;movable=1;resizable=1;deletable=1;editable=1;locked=0;connectable=1;" parent="37" vertex="1">
                    <mxGeometry y="66" width="195" height="20" as="geometry"/>
                </mxCell>
                <mxCell id="41" value="" style="line;strokeWidth=1;fillColor=none;align=left;verticalAlign=middle;spacingTop=-1;spacingLeft=3;spacingRight=3;rotatable=1;labelPosition=right;points=[];portConstraint=eastwest;fontColor=#FFFFFF;strokeColor=#FFFFFF;movable=1;resizable=1;deletable=1;editable=1;locked=0;connectable=1;" parent="37" vertex="1">
                    <mxGeometry y="86" width="195" height="8" as="geometry"/>
                </mxCell>
                <mxCell id="42" value="operations" style="text;html=1;strokeColor=none;fillColor=none;align=center;verticalAlign=middle;spacingLeft=4;spacingRight=4;overflow=hidden;rotatable=1;points=[[0,0.5],[1,0.5]];portConstraint=eastwest;whiteSpace=wrap;fontColor=#FFFFFF;movable=1;resizable=1;deletable=1;editable=1;locked=0;connectable=1;" parent="37" vertex="1">
                    <mxGeometry y="94" width="195" height="20" as="geometry"/>
                </mxCell>
                <mxCell id="43" value="validate()" style="text;html=1;strokeColor=none;fillColor=none;align=left;verticalAlign=middle;spacingLeft=4;spacingRight=4;overflow=hidden;rotatable=1;points=[[0,0.5],[1,0.5]];portConstraint=eastwest;whiteSpace=wrap;fontColor=#FFFFFF;movable=1;resizable=1;deletable=1;editable=1;locked=0;connectable=1;" parent="37" vertex="1">
                    <mxGeometry y="114" width="195" height="20" as="geometry"/>
                </mxCell>
                <mxCell id="48" value="ResultsDto" style="swimlane;fontStyle=0;align=center;verticalAlign=top;childLayout=stackLayout;horizontal=1;startSize=26;horizontalStack=0;resizeParent=1;resizeParentMax=0;resizeLast=0;collapsible=0;marginBottom=0;whiteSpace=wrap;fontColor=#FFFFFF;fillColor=none;strokeColor=#FFFFFF;movable=1;resizable=1;rotatable=1;deletable=1;editable=1;locked=0;connectable=1;" parent="1" vertex="1">
                    <mxGeometry x="260" y="611" width="313" height="214" as="geometry"/>
                </mxCell>
                <mxCell id="49" value="attributes" style="text;html=1;strokeColor=none;fillColor=none;align=center;verticalAlign=middle;spacingLeft=4;spacingRight=4;overflow=hidden;rotatable=1;points=[[0,0.5],[1,0.5]];portConstraint=eastwest;whiteSpace=wrap;fontColor=#FFFFFF;movable=1;resizable=1;deletable=1;editable=1;locked=0;connectable=1;" parent="48" vertex="1">
                    <mxGeometry y="26" width="313" height="20" as="geometry"/>
                </mxCell>
                <mxCell id="50" value="samples:&amp;nbsp;&lt;span style=&quot;color: rgb(255, 255, 255); text-align: center;&quot;&gt;SamplesDto&lt;/span&gt;" style="text;html=1;strokeColor=#FFFFFF;fillColor=none;align=left;verticalAlign=middle;spacingLeft=4;spacingRight=4;overflow=hidden;rotatable=1;points=[[0,0.5],[1,0.5]];portConstraint=eastwest;whiteSpace=wrap;fontColor=#FFFFFF;movable=1;resizable=1;deletable=1;editable=1;locked=0;connectable=1;dashed=1;" parent="48" vertex="1">
                    <mxGeometry y="46" width="313" height="20" as="geometry"/>
                </mxCell>
                <mxCell id="51" value="tamizDiameterProm: List&amp;lt;&lt;span style=&quot;color: rgb(255, 255, 255);&quot;&gt;number&amp;gt;&lt;/span&gt;" style="text;html=1;strokeColor=#FFFFFF;fillColor=none;align=left;verticalAlign=middle;spacingLeft=4;spacingRight=4;overflow=hidden;rotatable=1;points=[[0,0.5],[1,0.5]];portConstraint=eastwest;fontColor=#FFFFFF;whiteSpace=wrap;movable=1;resizable=1;deletable=1;editable=1;locked=0;connectable=1;dashed=1;" parent="48" vertex="1">
                    <mxGeometry y="66" width="313" height="20" as="geometry"/>
                </mxCell>
                <mxCell id="52" value="soilPorsion: List&amp;lt;number&amp;gt;" style="text;html=1;strokeColor=#FFFFFF;fillColor=none;align=left;verticalAlign=middle;spacingLeft=4;spacingRight=4;overflow=hidden;rotatable=1;points=[[0,0.5],[1,0.5]];portConstraint=eastwest;whiteSpace=wrap;fontColor=#FFFFFF;movable=1;resizable=1;deletable=1;editable=1;locked=0;connectable=1;dashed=1;" parent="48" vertex="1">
                    <mxGeometry y="86" width="313" height="20" as="geometry"/>
                </mxCell>
                <mxCell id="62" value="&lt;span style=&quot;color: rgb(255, 255, 255); text-align: center;&quot;&gt;MWDs: List&amp;lt;number&amp;gt;&lt;/span&gt;" style="text;html=1;strokeColor=#FFFFFF;fillColor=none;align=left;verticalAlign=middle;spacingLeft=4;spacingRight=4;overflow=hidden;rotatable=1;points=[[0,0.5],[1,0.5]];portConstraint=eastwest;whiteSpace=wrap;fontColor=#FFFFFF;movable=1;resizable=1;deletable=1;editable=1;locked=0;connectable=1;dashed=1;" parent="48" vertex="1">
                    <mxGeometry y="106" width="313" height="20" as="geometry"/>
                </mxCell>
                <mxCell id="63" value="&lt;span style=&quot;color: rgb(255, 255, 255); text-align: center;&quot;&gt;MWDTotal: number&lt;/span&gt;" style="text;html=1;strokeColor=#FFFFFF;fillColor=none;align=left;verticalAlign=middle;spacingLeft=4;spacingRight=4;overflow=hidden;rotatable=1;points=[[0,0.5],[1,0.5]];portConstraint=eastwest;whiteSpace=wrap;fontColor=#FFFFFF;movable=1;resizable=1;deletable=1;editable=1;locked=0;connectable=1;dashed=1;" parent="48" vertex="1">
                    <mxGeometry y="126" width="313" height="20" as="geometry"/>
                </mxCell>
                <mxCell id="53" value="" style="line;strokeWidth=1;fillColor=none;align=left;verticalAlign=middle;spacingTop=-1;spacingLeft=3;spacingRight=3;rotatable=1;labelPosition=right;points=[];portConstraint=eastwest;fontColor=#FFFFFF;strokeColor=#FFFFFF;movable=1;resizable=1;deletable=1;editable=1;locked=0;connectable=1;" parent="48" vertex="1">
                    <mxGeometry y="146" width="313" height="8" as="geometry"/>
                </mxCell>
                <mxCell id="54" value="operations" style="text;html=1;strokeColor=#FFFFFF;fillColor=none;align=center;verticalAlign=middle;spacingLeft=4;spacingRight=4;overflow=hidden;rotatable=1;points=[[0,0.5],[1,0.5]];portConstraint=eastwest;whiteSpace=wrap;fontColor=#FFFFFF;movable=1;resizable=1;deletable=1;editable=1;locked=0;connectable=1;dashed=1;" parent="48" vertex="1">
                    <mxGeometry y="154" width="313" height="20" as="geometry"/>
                </mxCell>
                <mxCell id="55" value="validateInput()" style="text;html=1;strokeColor=#FFFFFF;fillColor=none;align=left;verticalAlign=middle;spacingLeft=4;spacingRight=4;overflow=hidden;rotatable=1;points=[[0,0.5],[1,0.5]];portConstraint=eastwest;whiteSpace=wrap;fontColor=#FFFFFF;movable=1;resizable=1;deletable=1;editable=1;locked=0;connectable=1;dashed=1;" parent="48" vertex="1">
                    <mxGeometry y="174" width="313" height="20" as="geometry"/>
                </mxCell>
                <mxCell id="107" value="roundValues()" style="text;html=1;strokeColor=#FFFFFF;fillColor=none;align=left;verticalAlign=middle;spacingLeft=4;spacingRight=4;overflow=hidden;rotatable=1;points=[[0,0.5],[1,0.5]];portConstraint=eastwest;whiteSpace=wrap;fontColor=#FFFFFF;movable=1;resizable=1;deletable=1;editable=1;locked=0;connectable=1;dashed=1;" parent="48" vertex="1">
                    <mxGeometry y="194" width="313" height="20" as="geometry"/>
                </mxCell>
                <mxCell id="58" style="edgeStyle=none;html=1;strokeColor=#FFFFFF;exitX=0;exitY=0.5;exitDx=0;exitDy=0;entryX=1.002;entryY=0.058;entryDx=0;entryDy=0;entryPerimeter=0;movable=1;resizable=1;rotatable=1;deletable=1;editable=1;locked=0;connectable=1;" parent="1" source="23" target="29" edge="1">
                    <mxGeometry relative="1" as="geometry">
                        <mxPoint x="326" y="455" as="sourcePoint"/>
                    </mxGeometry>
                </mxCell>
                <mxCell id="65" style="edgeStyle=none;html=1;entryX=1.017;entryY=0.092;entryDx=0;entryDy=0;entryPerimeter=0;strokeColor=#FFFFFF;exitX=1;exitY=0.5;exitDx=0;exitDy=0;movable=1;resizable=1;rotatable=1;deletable=1;editable=1;locked=0;connectable=1;rounded=0;curved=0;" parent="1" source="50" target="21" edge="1">
                    <mxGeometry relative="1" as="geometry">
                        <Array as="points">
                            <mxPoint x="600" y="667"/>
                            <mxPoint x="600" y="426"/>
                        </Array>
                    </mxGeometry>
                </mxCell>
                <mxCell id="74" value="InputDriver" style="rounded=0;whiteSpace=wrap;fillColor=none;strokeColor=#FFFFFF;fontColor=#FFFFFF;align=left;verticalAlign=top;fontSize=18;movable=1;resizable=1;rotatable=1;deletable=1;editable=1;locked=0;connectable=1;" parent="1" vertex="1">
                    <mxGeometry x="661" y="395" width="390" height="168" as="geometry"/>
                </mxCell>
                <mxCell id="76" value="&lt;span style=&quot;color: rgb(255, 255, 255);&quot;&gt;FileToSamplesConverter&lt;/span&gt;" style="rounded=0;whiteSpace=wrap;html=1;fillColor=none;strokeColor=#FFFFFF;fontColor=#FFFFFF;movable=1;resizable=1;rotatable=1;deletable=1;editable=1;locked=0;connectable=1;" parent="1" vertex="1">
                    <mxGeometry x="699" y="435" width="191" height="38" as="geometry"/>
                </mxCell>
                <mxCell id="77" value="&lt;span style=&quot;color: rgb(255, 255, 255);&quot;&gt;UserInterfaceToSamplesConverter&lt;/span&gt;" style="rounded=0;whiteSpace=wrap;html=1;fillColor=none;strokeColor=#FFFFFF;fontColor=#FFFFFF;movable=1;resizable=1;rotatable=1;deletable=1;editable=1;locked=0;connectable=1;" parent="1" vertex="1">
                    <mxGeometry x="787" y="502" width="233" height="38" as="geometry"/>
                </mxCell>
                <mxCell id="78" value="OutputDriver" style="rounded=0;whiteSpace=wrap;fillColor=none;strokeColor=#FFFFFF;fontColor=#FFFFFF;align=left;verticalAlign=top;fontSize=18;movable=1;resizable=1;rotatable=1;deletable=1;editable=1;locked=0;connectable=1;" parent="1" vertex="1">
                    <mxGeometry x="661" y="585" width="389" height="197" as="geometry"/>
                </mxCell>
                <mxCell id="79" value="&lt;span style=&quot;color: rgb(255, 255, 255);&quot;&gt;&lt;span style=&quot;color: rgb(255, 255, 255);&quot;&gt;Results&lt;/span&gt;ToFileConverter&lt;/span&gt;" style="rounded=0;whiteSpace=wrap;html=1;fillColor=none;strokeColor=#FFFFFF;fontColor=#FFFFFF;movable=1;resizable=1;rotatable=1;deletable=1;editable=1;locked=0;connectable=1;" parent="1" vertex="1">
                    <mxGeometry x="669" y="635" width="191" height="38" as="geometry"/>
                </mxCell>
                <mxCell id="80" value="&lt;span style=&quot;color: rgb(255, 255, 255);&quot;&gt;Results&lt;/span&gt;&lt;span style=&quot;color: rgb(255, 255, 255);&quot;&gt;ToUserInteraceConverter&lt;/span&gt;" style="rounded=0;whiteSpace=wrap;html=1;fillColor=none;strokeColor=#FFFFFF;fontColor=#FFFFFF;movable=1;resizable=1;rotatable=1;deletable=1;editable=1;locked=0;connectable=1;" parent="1" vertex="1">
                    <mxGeometry x="777" y="700" width="233" height="38" as="geometry"/>
                </mxCell>
                <mxCell id="81" value="Logic" style="rounded=0;whiteSpace=wrap;fillColor=none;strokeColor=#FFFFFF;fontColor=#FFFFFF;align=left;verticalAlign=top;fontSize=18;movable=1;resizable=1;rotatable=1;deletable=1;editable=1;locked=0;connectable=1;" parent="1" vertex="1">
                    <mxGeometry x="659" y="101" width="394" height="258" as="geometry"/>
                </mxCell>
                <mxCell id="84" value="Application" style="rounded=0;whiteSpace=wrap;fillColor=none;strokeColor=#99CCFF;fontColor=#99CCFF;align=left;verticalAlign=top;fontSize=18;movable=1;resizable=1;rotatable=1;deletable=1;editable=1;locked=0;connectable=1;" parent="1" vertex="1">
                    <mxGeometry x="118" y="32.5" width="373" height="148.5" as="geometry"/>
                </mxCell>
                <mxCell id="92" style="edgeStyle=none;html=1;entryX=0.5;entryY=1;entryDx=0;entryDy=0;strokeColor=#99CCFF;fontColor=#99CCFF;align=left;verticalAlign=top;movable=1;resizable=1;rotatable=1;deletable=1;editable=1;locked=0;connectable=1;" parent="1" source="85" target="89" edge="1">
                    <mxGeometry relative="1" as="geometry"/>
                </mxCell>
                <mxCell id="85" value="Core" style="rounded=0;whiteSpace=wrap;html=1;fillColor=none;strokeColor=#99CCFF;fontColor=#99CCFF;align=left;verticalAlign=top;movable=1;resizable=1;rotatable=1;deletable=1;editable=1;locked=0;connectable=1;" parent="1" vertex="1">
                    <mxGeometry x="343" y="122" width="120" height="46" as="geometry"/>
                </mxCell>
                <mxCell id="87" style="edgeStyle=none;html=1;entryX=0;entryY=0.5;entryDx=0;entryDy=0;strokeColor=#99CCFF;fontColor=#99CCFF;align=left;verticalAlign=top;movable=1;resizable=1;rotatable=1;deletable=1;editable=1;locked=0;connectable=1;" parent="1" source="86" target="85" edge="1">
                    <mxGeometry relative="1" as="geometry"/>
                </mxCell>
                <mxCell id="86" value="UserInterface" style="rounded=0;whiteSpace=wrap;html=1;fillColor=none;strokeColor=#99CCFF;fontColor=#99CCFF;align=left;verticalAlign=top;movable=1;resizable=1;rotatable=1;deletable=1;editable=1;locked=0;connectable=1;" parent="1" vertex="1">
                    <mxGeometry x="171.5" y="122" width="120" height="46" as="geometry"/>
                </mxCell>
                <mxCell id="89" value="Shared" style="rounded=0;whiteSpace=wrap;html=1;fillColor=none;strokeColor=#99CCFF;fontColor=#99CCFF;align=left;verticalAlign=top;movable=1;resizable=1;rotatable=1;deletable=1;editable=1;locked=0;connectable=1;" parent="1" vertex="1">
                    <mxGeometry x="249" y="51" width="120" height="49" as="geometry"/>
                </mxCell>
                <mxCell id="91" style="edgeStyle=none;html=1;entryX=0.457;entryY=1.023;entryDx=0;entryDy=0;entryPerimeter=0;strokeColor=#99CCFF;fontColor=#99CCFF;align=left;verticalAlign=top;movable=1;resizable=1;rotatable=1;deletable=1;editable=1;locked=0;connectable=1;" parent="1" source="86" target="89" edge="1">
                    <mxGeometry relative="1" as="geometry"/>
                </mxCell>
                <mxCell id="93" value="SamplesToResultsCalculator" style="swimlane;fontStyle=0;align=center;verticalAlign=top;childLayout=stackLayout;horizontal=1;startSize=26;horizontalStack=0;resizeParent=1;resizeParentMax=0;resizeLast=0;collapsible=0;marginBottom=0;whiteSpace=wrap;fontColor=#FFFFFF;fillColor=none;strokeColor=#FFFFFF;movable=1;resizable=1;rotatable=1;deletable=1;editable=1;locked=0;connectable=1;" parent="1" vertex="1">
                    <mxGeometry x="692" y="146" width="313" height="194" as="geometry"/>
                </mxCell>
                <mxCell id="94" value="attributes" style="text;html=1;strokeColor=none;fillColor=none;align=center;verticalAlign=middle;spacingLeft=4;spacingRight=4;overflow=hidden;rotatable=1;points=[[0,0.5],[1,0.5]];portConstraint=eastwest;whiteSpace=wrap;fontColor=#FFFFFF;movable=1;resizable=1;deletable=1;editable=1;locked=0;connectable=1;" parent="93" vertex="1">
                    <mxGeometry y="26" width="313" height="20" as="geometry"/>
                </mxCell>
                <mxCell id="95" value="data:&amp;nbsp;&lt;span style=&quot;color: rgb(255, 255, 255); text-align: center;&quot;&gt;ResultsDto&lt;/span&gt;" style="text;html=1;strokeColor=none;fillColor=none;align=left;verticalAlign=middle;spacingLeft=4;spacingRight=4;overflow=hidden;rotatable=1;points=[[0,0.5],[1,0.5]];portConstraint=eastwest;whiteSpace=wrap;fontColor=#FFFFFF;movable=1;resizable=1;deletable=1;editable=1;locked=0;connectable=1;" parent="93" vertex="1">
                    <mxGeometry y="46" width="313" height="20" as="geometry"/>
                </mxCell>
                <mxCell id="100" value="" style="line;strokeWidth=1;fillColor=none;align=left;verticalAlign=middle;spacingTop=-1;spacingLeft=3;spacingRight=3;rotatable=1;labelPosition=right;points=[];portConstraint=eastwest;fontColor=#FFFFFF;strokeColor=#FFFFFF;movable=1;resizable=1;deletable=1;editable=1;locked=0;connectable=1;" parent="93" vertex="1">
                    <mxGeometry y="66" width="313" height="8" as="geometry"/>
                </mxCell>
                <mxCell id="101" value="operations" style="text;html=1;strokeColor=none;fillColor=none;align=center;verticalAlign=middle;spacingLeft=4;spacingRight=4;overflow=hidden;rotatable=1;points=[[0,0.5],[1,0.5]];portConstraint=eastwest;whiteSpace=wrap;fontColor=#FFFFFF;movable=1;resizable=1;deletable=1;editable=1;locked=0;connectable=1;" parent="93" vertex="1">
                    <mxGeometry y="74" width="313" height="20" as="geometry"/>
                </mxCell>
                <mxCell id="102" value="&lt;span style=&quot;color: rgb(255, 255, 255);&quot;&gt;calcTamizDiameterProm()&lt;/span&gt;" style="text;html=1;strokeColor=none;fillColor=none;align=left;verticalAlign=middle;spacingLeft=4;spacingRight=4;overflow=hidden;rotatable=1;points=[[0,0.5],[1,0.5]];portConstraint=eastwest;whiteSpace=wrap;fontColor=#FFFFFF;movable=1;resizable=1;deletable=1;editable=1;locked=0;connectable=1;" parent="93" vertex="1">
                    <mxGeometry y="94" width="313" height="20" as="geometry"/>
                </mxCell>
                <mxCell id="105" value="&lt;span style=&quot;color: rgb(255, 255, 255);&quot;&gt;calcSoilPort&lt;/span&gt;&lt;span style=&quot;background-color: transparent;&quot;&gt;ion()&lt;/span&gt;" style="text;html=1;strokeColor=none;fillColor=none;align=left;verticalAlign=middle;spacingLeft=4;spacingRight=4;overflow=hidden;rotatable=1;points=[[0,0.5],[1,0.5]];portConstraint=eastwest;whiteSpace=wrap;fontColor=#FFFFFF;movable=1;resizable=1;deletable=1;editable=1;locked=0;connectable=1;" parent="93" vertex="1">
                    <mxGeometry y="114" width="313" height="20" as="geometry"/>
                </mxCell>
                <mxCell id="104" value="&lt;span style=&quot;color: rgb(255, 255, 255); text-align: center;&quot;&gt;calcMWDs()&lt;/span&gt;" style="text;html=1;strokeColor=none;fillColor=none;align=left;verticalAlign=middle;spacingLeft=4;spacingRight=4;overflow=hidden;rotatable=1;points=[[0,0.5],[1,0.5]];portConstraint=eastwest;whiteSpace=wrap;fontColor=#FFFFFF;movable=1;resizable=1;deletable=1;editable=1;locked=0;connectable=1;" parent="93" vertex="1">
                    <mxGeometry y="134" width="313" height="20" as="geometry"/>
                </mxCell>
                <mxCell id="103" value="&lt;span style=&quot;color: rgb(255, 255, 255); text-align: center;&quot;&gt;calcMWDTotal()&lt;/span&gt;" style="text;html=1;strokeColor=none;fillColor=none;align=left;verticalAlign=middle;spacingLeft=4;spacingRight=4;overflow=hidden;rotatable=1;points=[[0,0.5],[1,0.5]];portConstraint=eastwest;whiteSpace=wrap;fontColor=#FFFFFF;movable=1;resizable=1;deletable=1;editable=1;locked=0;connectable=1;" parent="93" vertex="1">
                    <mxGeometry y="154" width="313" height="20" as="geometry"/>
                </mxCell>
                <mxCell id="106" value="&lt;span style=&quot;color: rgb(255, 255, 255); text-align: center;&quot;&gt;calcSoil&lt;span style=&quot;color: rgb(255, 255, 255); text-align: left;&quot;&gt;Width&lt;/span&gt;()&lt;/span&gt;" style="text;html=1;strokeColor=none;fillColor=none;align=left;verticalAlign=middle;spacingLeft=4;spacingRight=4;overflow=hidden;rotatable=1;points=[[0,0.5],[1,0.5]];portConstraint=eastwest;whiteSpace=wrap;fontColor=#FFFFFF;movable=1;resizable=1;deletable=1;editable=1;locked=0;connectable=1;" parent="93" vertex="1">
                    <mxGeometry y="174" width="313" height="20" as="geometry"/>
                </mxCell>
                <mxCell id="113" value="..." style="text;html=1;align=center;verticalAlign=middle;whiteSpace=wrap;rounded=0;fontColor=#99CCFF;fontSize=22;movable=1;resizable=1;rotatable=1;deletable=1;editable=1;locked=0;connectable=1;" parent="1" vertex="1">
                    <mxGeometry x="283" y="64.5" width="60" height="22" as="geometry"/>
                </mxCell>
                <mxCell id="114" value="..." style="text;html=1;align=center;verticalAlign=middle;whiteSpace=wrap;rounded=0;fontColor=#99CCFF;fontSize=22;movable=1;resizable=1;rotatable=1;deletable=1;editable=1;locked=0;connectable=1;" parent="1" vertex="1">
                    <mxGeometry x="203" y="141.5" width="60" height="22" as="geometry"/>
                </mxCell>
                <mxCell id="115" value="..." style="text;html=1;align=center;verticalAlign=middle;whiteSpace=wrap;rounded=0;fontColor=#99CCFF;fontSize=22;movable=1;resizable=1;rotatable=1;deletable=1;editable=1;locked=0;connectable=1;" parent="1" vertex="1">
                    <mxGeometry x="374" y="137.5" width="60" height="22" as="geometry"/>
                </mxCell>
                <mxCell id="116" value="..." style="text;html=1;align=center;verticalAlign=middle;whiteSpace=wrap;rounded=0;fontColor=#99CCFF;fontSize=22;movable=1;resizable=1;rotatable=1;deletable=1;editable=1;locked=0;connectable=1;" parent="1" vertex="1">
                    <mxGeometry x="120" y="260" width="60" height="22" as="geometry"/>
                </mxCell>
                <mxCell id="117" value="..." style="text;html=1;align=center;verticalAlign=middle;whiteSpace=wrap;rounded=0;fontColor=#99CCFF;fontSize=22;movable=1;resizable=1;rotatable=1;deletable=1;editable=1;locked=0;connectable=1;" parent="1" vertex="1">
                    <mxGeometry x="290" y="260" width="60" height="22" as="geometry"/>
                </mxCell>
                <mxCell id="118" value="..." style="text;html=1;align=center;verticalAlign=middle;whiteSpace=wrap;rounded=0;fontColor=#99CCFF;fontSize=22;movable=1;resizable=1;rotatable=1;deletable=1;editable=1;locked=0;connectable=1;" parent="1" vertex="1">
                    <mxGeometry x="460" y="260" width="60" height="22" as="geometry"/>
                </mxCell>
            </root>
        </mxGraphModel>
    </diagram>
</mxfile>